<svg id="visual" viewBox="0 0 900 600" width="900" height="600" xmlns="http://www.w3.org/2000/svg" xmlns:xlink="http://www.w3.org/1999/xlink" version="1.1"><rect x="0" y="0" width="900" height="600" fill="#FFFFFF"></rect><defs><linearGradient id="grad1_0" x1="33.3%" y1="100%" x2="100%" y2="0%"><stop offset="20%" stop-color="#ffffff" stop-opacity="1"></stop><stop offset="80%" stop-color="#ffffff" stop-opacity="1"></stop></linearGradient></defs><defs><linearGradient id="grad2_0" x1="0%" y1="100%" x2="66.7%" y2="0%"><stop offset="20%" stop-color="#ffffff" stop-opacity="1"></stop><stop offset="80%" stop-color="#ffffff" stop-opacity="1"></stop></linearGradient></defs><g transform="translate(900, 600)"><path d="M-243.4 0C-237.3 -43.1 -231.2 -86.1 -210.8 -121.7C-190.3 -157.3 -155.5 -185.3 -118 -204.4C-80.5 -223.4 -40.2 -233.4 0 -243.4L0 0Z" fill="#f4e0c6"></path></g><g transform="translate(0, 0)"><path d="M243.4 0C237.6 43.6 231.9 87.3 210.8 121.7C189.7 156.1 153.2 181.3 115.5 200.1C77.8 218.8 38.9 231.1 0 243.4L0 0Z" fill="#f4e0c6"></path></g></svg>