<svg id="visual" viewBox="0 0 900 600" width="900" height="600" xmlns="http://www.w3.org/2000/svg" xmlns:xlink="http://www.w3.org/1999/xlink" version="1.1"><rect x="0" y="0" width="900" height="600" fill="#FFFFFF"></rect><path d="M0 544L21.5 537.3C43 530.7 86 517.3 128.8 511.5C171.7 505.7 214.3 507.3 257.2 510.8C300 514.3 343 519.7 385.8 516.3C428.7 513 471.3 501 514.2 492.7C557 484.3 600 479.7 642.8 488C685.7 496.3 728.3 517.7 771.2 518.5C814 519.3 857 499.7 878.5 489.8L900 480L900 601L878.5 601C857 601 814 601 771.2 601C728.3 601 685.7 601 642.8 601C600 601 557 601 514.2 601C471.3 601 428.7 601 385.8 601C343 601 300 601 257.2 601C214.3 601 171.7 601 128.8 601C86 601 43 601 21.5 601L0 601Z" fill="#f6d9ad" stroke-linecap="round" stroke-linejoin="miter"></path></svg>